<svg viewBox="0 0 200 200" xmlns="http://www.w3.org/2000/svg">
  <path fill="#6F48F0" d="M35.8,-63C44.2,-57.1,47.4,-43.2,54.7,-31.3C62,-19.5,73.5,-9.7,78.1,2.6C82.7,15,80.4,30.1,72.2,40.4C64,50.8,49.9,56.5,36.9,59.7C23.9,63,12,63.8,2.1,60.1C-7.7,56.4,-15.4,48.3,-25.6,43.4C-35.7,38.5,-48.3,36.8,-47,30.1C-45.8,23.5,-30.6,11.7,-34.5,-2.3C-38.4,-16.2,-61.4,-32.5,-66.4,-45.6C-71.4,-58.7,-58.4,-68.6,-44.3,-71.2C-30.2,-73.9,-15.1,-69.1,-0.7,-67.9C13.7,-66.7,27.4,-68.9,35.8,-63Z" transform="translate(100 100)" />
</svg>