<svg width="100" height="100" viewBox="0 0 279 96" fill="none" xmlns="http://www.w3.org/2000/svg">
<path d="M85.7416 26.3914C83.7408 24.723 80.7796 24.1014 78.0184 24.7556L13.632 39.9684C10.7188 40.626 8.65396 42.5137 8.09772 44.9118C7.52948 47.3524 9.51432 50.4506 12.1074 51.746L32.2396 61.7996C34.3044 62.8302 36.9695 62.5718 38.6782 61.1714L61.7316 42.324C62.892 41.3425 64.8128 41.3425 65.9736 42.324C67.134 43.2727 67.134 44.8104 65.9736 45.7919L42.88 64.6427C41.1672 66.0395 40.8472 68.2151 42.1076 69.9031L54.4088 86.4249C55.8492 88.3875 58.3304 89.5 61.0512 89.5C61.3716 89.5 61.7316 89.5 62.052 89.4672C65.1732 89.1402 67.654 87.4063 68.5744 84.9526L87.6624 32.7056C88.5028 30.4809 87.7424 28.06 85.7416 26.3914Z" fill="white"/>
<path d="M136.752 65.264H152.368V70H130.928V25.392H136.752V65.264ZM173.849 70.576C170.564 70.576 167.577 69.8293 164.889 68.336C162.244 66.8427 160.153 64.7307 158.617 62C157.124 59.2267 156.377 56.0267 156.377 52.4C156.377 48.816 157.145 45.6587 158.681 42.928C160.26 40.1547 162.393 38.0427 165.081 36.592C167.769 35.0987 170.777 34.352 174.105 34.352C177.433 34.352 180.441 35.0987 183.129 36.592C185.817 38.0427 187.929 40.1333 189.465 42.864C191.044 45.5947 191.833 48.7733 191.833 52.4C191.833 56.0267 191.022 59.2267 189.401 62C187.822 64.7307 185.668 66.8427 182.937 68.336C180.206 69.8293 177.177 70.576 173.849 70.576ZM173.849 65.456C175.94 65.456 177.902 64.9653 179.737 63.984C181.572 63.0027 183.044 61.5307 184.153 59.568C185.305 57.6053 185.881 55.216 185.881 52.4C185.881 49.584 185.326 47.1947 184.217 45.232C183.108 43.2693 181.657 41.8187 179.865 40.88C178.073 39.8987 176.132 39.408 174.041 39.408C171.908 39.408 169.945 39.8987 168.153 40.88C166.404 41.8187 164.996 43.2693 163.929 45.232C162.862 47.1947 162.329 49.584 162.329 52.4C162.329 55.2587 162.841 57.6693 163.865 59.632C164.932 61.5947 166.34 63.0667 168.089 64.048C169.838 64.9867 171.758 65.456 173.849 65.456ZM213.955 34.352C216.984 34.352 219.629 35.0133 221.891 36.336C224.195 37.6587 225.901 39.3227 227.011 41.328V34.928H232.899V70.768C232.899 73.968 232.216 76.8053 230.851 79.28C229.485 81.7973 227.523 83.76 224.963 85.168C222.445 86.576 219.501 87.28 216.131 87.28C211.523 87.28 207.683 86.192 204.611 84.016C201.539 81.84 199.725 78.8747 199.171 75.12H204.931C205.571 77.2533 206.893 78.96 208.899 80.24C210.904 81.5627 213.315 82.224 216.131 82.224C219.331 82.224 221.933 81.2213 223.939 79.216C225.987 77.2107 227.011 74.3947 227.011 70.768V63.408C225.859 65.456 224.152 67.1627 221.891 68.528C219.629 69.8933 216.984 70.576 213.955 70.576C210.84 70.576 208.003 69.808 205.443 68.272C202.925 66.736 200.941 64.5813 199.491 61.808C198.04 59.0347 197.315 55.8773 197.315 52.336C197.315 48.752 198.04 45.616 199.491 42.928C200.941 40.1973 202.925 38.0853 205.443 36.592C208.003 35.0987 210.84 34.352 213.955 34.352ZM227.011 52.4C227.011 49.7547 226.477 47.4507 225.411 45.488C224.344 43.5253 222.893 42.032 221.059 41.008C219.267 39.9413 217.283 39.408 215.107 39.408C212.931 39.408 210.947 39.92 209.155 40.944C207.363 41.968 205.933 43.4613 204.867 45.424C203.8 47.3867 203.267 49.6907 203.267 52.336C203.267 55.024 203.8 57.3707 204.867 59.376C205.933 61.3387 207.363 62.8533 209.155 63.92C210.947 64.944 212.931 65.456 215.107 65.456C217.283 65.456 219.267 64.944 221.059 63.92C222.893 62.8533 224.344 61.3387 225.411 59.376C226.477 57.3707 227.011 55.0453 227.011 52.4ZM258.037 70.576C254.751 70.576 251.765 69.8293 249.077 68.336C246.431 66.8427 244.341 64.7307 242.805 62C241.311 59.2267 240.565 56.0267 240.565 52.4C240.565 48.816 241.333 45.6587 242.869 42.928C244.447 40.1547 246.581 38.0427 249.269 36.592C251.957 35.0987 254.965 34.352 258.293 34.352C261.621 34.352 264.629 35.0987 267.317 36.592C270.005 38.0427 272.117 40.1333 273.653 42.864C275.231 45.5947 276.021 48.7733 276.021 52.4C276.021 56.0267 275.21 59.2267 273.589 62C272.01 64.7307 269.855 66.8427 267.125 68.336C264.394 69.8293 261.365 70.576 258.037 70.576ZM258.037 65.456C260.127 65.456 262.09 64.9653 263.925 63.984C265.759 63.0027 267.231 61.5307 268.341 59.568C269.493 57.6053 270.069 55.216 270.069 52.4C270.069 49.584 269.514 47.1947 268.405 45.232C267.295 43.2693 265.845 41.8187 264.053 40.88C262.261 39.8987 260.319 39.408 258.229 39.408C256.095 39.408 254.133 39.8987 252.341 40.88C250.591 41.8187 249.183 43.2693 248.117 45.232C247.05 47.1947 246.517 49.584 246.517 52.4C246.517 55.2587 247.029 57.6693 248.053 59.632C249.119 61.5947 250.527 63.0667 252.277 64.048C254.026 64.9867 255.946 65.456 258.037 65.456Z" fill="white"/>
</svg>
